<?xml version="1.0" encoding="UTF-8" standalone="no"?>
<!-- Created with Inkscape (http://www.inkscape.org/) -->

<svg
   xmlns:dc="http://purl.org/dc/elements/1.1/"
   xmlns:cc="http://creativecommons.org/ns#"
   xmlns:rdf="http://www.w3.org/1999/02/22-rdf-syntax-ns#"
   xmlns:svg="http://www.w3.org/2000/svg"
   xmlns="http://www.w3.org/2000/svg"
   xmlns:sodipodi="http://sodipodi.sourceforge.net/DTD/sodipodi-0.dtd"
   xmlns:inkscape="http://www.inkscape.org/namespaces/inkscape"
   width="290"
   height="190"
   id="svg3182"
   version="1.1"
   inkscape:version="0.48.2 r9819"
   sodipodi:docname="New document 13">
  <defs
     id="defs3184" />
  <sodipodi:namedview
     id="base"
     pagecolor="#ffffff"
     bordercolor="#666666"
     borderopacity="1.0"
     inkscape:pageopacity="0.0"
     inkscape:pageshadow="2"
     inkscape:zoom="1.968776"
     inkscape:cx="31.318361"
     inkscape:cy="99.776595"
     inkscape:document-units="px"
     inkscape:current-layer="layer1"
     showgrid="false"
     inkscape:window-width="1649"
     inkscape:window-height="943"
     inkscape:window-x="110"
     inkscape:window-y="52"
     inkscape:window-maximized="0" />
  <metadata
     id="metadata3187">
    <rdf:RDF>
      <cc:Work
         rdf:about="">
        <dc:format>image/svg+xml</dc:format>
        <dc:type
           rdf:resource="http://purl.org/dc/dcmitype/StillImage" />
        <dc:title></dc:title>
      </cc:Work>
    </rdf:RDF>
  </metadata>
  <g
     inkscape:label="Layer 1"
     inkscape:groupmode="layer"
     id="layer1"
     transform="translate(0,-862.36218)">
    <path
       id="path3235"
       d="m 83.001919,970.98462 c 0.002,0 0.0155,-0.002 0.0155,-0.002 -0.99735,-3.9103 -1.12116,-8.13356 -0.1668,-13.10999 0.15476,-0.56917 0.29061,-1.25356 0.39894,-2.00157 0.60185,-4.17339 -0.4832,-8.91768 -1.93967,-14.54582 -1.73677,-6.71147 -5.68661,-8.25393 -8.921118,-8.59268 -0.0172,-0.002 -0.02751,-0.007 -0.04471,-0.009 -3.053951,-0.36627 -6.909221,-0.86322 -7.801677,-3.21903 0.818514,-0.1324 1.453035,-0.80991 1.453035,-1.66626 0,-0.9492 -0.768647,-1.71957 -1.719568,-1.71957 0.950921,0 1.719568,-0.77036 1.719568,-1.71956 0,-0.9492 -0.768647,-1.71957 -1.719568,-1.71957 H 50.517574 c -0.949201,0 -1.719567,0.77037 -1.719567,1.71957 0,0.9492 0.770366,1.71956 1.719567,1.71956 -0.949201,0 -1.719567,0.77037 -1.719567,1.71957 0,0.90277 0.701583,1.62155 1.585441,1.69206 -0.435051,4.00487 -1.98782,13.57426 -5.024576,20.66232 -5.158702,12.03697 -15.476106,15.4761 -15.476106,30.95221 l 1.487426,56.74914 c 0.127248,4.7271 4.101168,8.5944 8.829978,8.5944 h 34.391347 c 4.728812,0 8.702732,-3.8673 8.829982,-8.5944 l 1.48742,-56.74914 c 0.002,-4.11321 -0.73941,-7.36147 -1.907,-10.16092 z m -36.807337,-3.27234 c -3.865588,4.78727 -5.992692,7.42509 -5.992692,13.43154 l 1.719567,56.69408 c 0.02923,0.9492 -0.71706,1.7419 -1.666261,1.7711 -0.0172,0 -0.03611,0 -0.05331,0 -0.926847,0 -1.688616,-0.7359 -1.717848,-1.6679 L 36.76447,981.19541 c 0,-7.27377 2.685965,-10.60458 6.754461,-15.64291 0.598409,-0.73941 1.683456,-0.8529 2.417712,-0.25793 0.739414,0.59669 0.854625,1.67829 0.257935,2.41771 z m 32.243607,-11.88909 c -1.11772,2.52948 -4.267966,2.28359 -6.824963,-1.42896 -0.787562,-1.2914 -1.525256,-2.67737 -2.180411,-4.20262 -0.35767,-0.83227 -0.687827,-1.70581 -1.004228,-2.59483 -1.721287,-4.68754 -0.269972,-9.07588 2.300781,-9.95458 1.367056,-0.46772 4.912801,-1.33266 6.720071,5.22061 1.62843,5.89296 2.42803,9.23236 0.98875,12.96038 z"
       inkscape:connector-curvature="0" />
    <path
       inkscape:connector-curvature="0"
       d="m 170.87377,922.98465 c 0.002,0 0.0155,-0.002 0.0155,-0.002 -0.99735,-3.9103 -1.12116,-8.13356 -0.1668,-13.10999 0.15476,-0.56917 0.29061,-1.25356 0.39894,-2.00157 0.60185,-4.17339 -0.4832,-8.91768 -1.93967,-14.54582 -1.73677,-6.71147 -5.68661,-8.25393 -8.92111,-8.59268 -0.0172,-0.002 -0.0275,-0.007 -0.0447,-0.009 -3.05396,-0.36627 -6.90923,-0.86322 -7.80168,-3.21903 0.81851,-0.1324 1.45303,-0.80991 1.45303,-1.66626 0,-0.9492 -0.76864,-1.71957 -1.71956,-1.71957 0.95092,0 1.71956,-0.77036 1.71956,-1.71956 0,-0.9492 -0.76864,-1.71957 -1.71956,-1.71957 h -13.75829 c -0.9492,0 -1.71957,0.77037 -1.71957,1.71957 0,0.9492 0.77037,1.71956 1.71957,1.71956 -0.9492,0 -1.71957,0.77037 -1.71957,1.71957 0,0.90277 0.70158,1.62155 1.58544,1.69206 -0.43505,4.00487 -1.98782,13.57426 -5.02457,20.66232 -5.15871,12.03697 -15.47611,15.4761 -15.47611,30.95221 l 1.48743,56.74911 c 0.12724,4.7271 4.10116,8.5944 8.82997,8.5944 h 34.39135 c 4.72881,0 8.70273,-3.8673 8.82998,-8.5944 l 1.48742,-56.74911 c 0.002,-4.11321 -0.73941,-7.36147 -1.907,-10.16092 z m -36.80733,-3.27234 c -3.86559,4.78727 -5.9927,7.42509 -5.9927,13.43154 l 1.71957,56.69405 c 0.0292,0.9492 -0.71706,1.7419 -1.66626,1.7711 -0.0172,0 -0.0361,0 -0.0533,0 -0.92685,0 -1.68862,-0.7359 -1.71785,-1.6679 l -1.71957,-56.74566 c 0,-7.27377 2.68597,-10.60458 6.75447,-15.64291 0.5984,-0.73941 1.68345,-0.8529 2.41771,-0.25793 0.73941,0.59669 0.85462,1.67829 0.25793,2.41771 z m 32.2436,-11.88909 c -1.11772,2.52948 -4.26796,2.28359 -6.82496,-1.42896 -0.78756,-1.2914 -1.52526,-2.67737 -2.18041,-4.20262 -0.35767,-0.83227 -0.68783,-1.70581 -1.00423,-2.59483 -1.72129,-4.68754 -0.26997,-9.07588 2.30078,-9.95458 1.36706,-0.46772 4.9128,-1.33266 6.72007,5.22061 1.62843,5.89296 2.42803,9.23236 0.98875,12.96038 z"
       id="path3266" />
    <path
       id="path3268"
       d="m 258.74563,970.98469 c 0.002,0 0.0155,-0.002 0.0155,-0.002 -0.99735,-3.9103 -1.12116,-8.13356 -0.1668,-13.10999 0.15476,-0.56917 0.29061,-1.25356 0.39894,-2.00157 0.60185,-4.17339 -0.4832,-8.91768 -1.93967,-14.54582 -1.73677,-6.71147 -5.68661,-8.25393 -8.92111,-8.59268 -0.0172,-0.002 -0.0275,-0.007 -0.0447,-0.009 -3.05396,-0.36627 -6.90923,-0.86322 -7.80168,-3.21903 0.81851,-0.1324 1.45303,-0.80991 1.45303,-1.66626 0,-0.9492 -0.76864,-1.71957 -1.71956,-1.71957 0.95092,0 1.71956,-0.77036 1.71956,-1.71956 0,-0.9492 -0.76864,-1.71957 -1.71956,-1.71957 h -13.75829 c -0.9492,0 -1.71957,0.77037 -1.71957,1.71957 0,0.9492 0.77037,1.71956 1.71957,1.71956 -0.9492,0 -1.71957,0.77037 -1.71957,1.71957 0,0.90277 0.70158,1.62155 1.58544,1.69206 -0.43505,4.00487 -1.98782,13.57426 -5.02457,20.66232 -5.15871,12.03697 -15.47611,15.4761 -15.47611,30.95221 l 1.48743,56.74907 c 0.12724,4.7271 4.10116,8.5944 8.82997,8.5944 h 34.39135 c 4.72881,0 8.70273,-3.8673 8.82998,-8.5944 l 1.48742,-56.74907 c 0.002,-4.11321 -0.73941,-7.36147 -1.907,-10.16092 z m -36.80733,-3.27234 c -3.86559,4.78727 -5.9927,7.42509 -5.9927,13.43154 l 1.71957,56.69401 c 0.0292,0.9492 -0.71706,1.7419 -1.66626,1.7711 -0.0172,0 -0.0361,0 -0.0533,0 -0.92685,0 -1.68862,-0.7359 -1.71785,-1.6679 l -1.71957,-56.74562 c 0,-7.27377 2.68597,-10.60458 6.75447,-15.64291 0.5984,-0.73941 1.68345,-0.8529 2.41771,-0.25793 0.73941,0.59669 0.85462,1.67829 0.25793,2.41771 z m 32.2436,-11.88909 c -1.11772,2.52948 -4.26796,2.28359 -6.82496,-1.42896 -0.78756,-1.2914 -1.52526,-2.67737 -2.18041,-4.20262 -0.35767,-0.83227 -0.68783,-1.70581 -1.00423,-2.59483 -1.72129,-4.68754 -0.26997,-9.07588 2.30078,-9.95458 1.36706,-0.46772 4.9128,-1.33266 6.72007,5.22061 1.62843,5.89296 2.42803,9.23236 0.98875,12.96038 z"
       inkscape:connector-curvature="0" />
  </g>
</svg>
