<svg xmlns="http://www.w3.org/2000/svg" xmlns:xlink="http://www.w3.org/1999/xlink" version="1.1" x="0px" y="0px" width="100px" height="100px" viewBox="0 0 100 100" enable-background="new 0 0 100 100" xml:space="preserve">
<g id="Captions">
</g>
<g id="Your_Icon">
	<path fill="#000000" d="M35.551,64.875c0,4.35-3.531,7.875-7.889,7.875c-4.356,0-7.889-3.525-7.889-7.875S23.306,57,27.662,57   C32.02,57,35.551,60.525,35.551,64.875z M87.385,53.58v8.46c0,1.56-1.271,2.83-2.83,2.83h-1.3c0-5.65-4.59-10.23-10.24-10.23   s-10.24,4.58-10.24,10.23H37.915c0-5.65-4.59-10.23-10.25-10.23c-5.67,0-10.26,4.58-10.26,10.23h-1.95   c-1.561,0-2.84-1.271-2.84-2.83V50.58h36.149V28.67c0-0.72,0.54-1.32,1.24-1.4c0.06-0.02,0.12-0.02,0.18-0.02h12.561   c1.56,0,3.439,1.12,4.18,2.49l7.51,13.91c0.74,1.37,2.53,2.96,3.98,3.541l6.34,2.52C86.205,50.28,87.385,52.03,87.385,53.58z    M70.495,46.02l-7.03-12.78c-0.38-0.68-1.32-1.24-2.101-1.24h-6.6c-0.78,0-1.42,0.64-1.42,1.42v12.42c0,0.78,0.64,1.42,1.42,1.42   h15C70.545,47.26,70.875,46.7,70.495,46.02z M50.005,27.25v0.02c0.06-0.02,0.12-0.02,0.18-0.02H50.005z M73.015,57   c-4.35,0-7.875,3.525-7.875,7.875s3.525,7.875,7.875,7.875s7.875-3.525,7.875-7.875S77.364,57,73.015,57z M16.935,32.57V47.19   l12.79-7.3L16.935,32.57z M31.745,41.05l-12.91,7.37h25.77L31.745,41.05z M18.945,31.42l12.79,7.33l12.85-7.33H18.945z    M33.755,39.9l12.84,7.36V32.58L33.755,39.9z"/>
</g>
</svg>