<?xml version="1.0" encoding="UTF-8" standalone="no"?>
<svg
   xmlns:dc="http://purl.org/dc/elements/1.1/"
   xmlns:cc="http://creativecommons.org/ns#"
   xmlns:rdf="http://www.w3.org/1999/02/22-rdf-syntax-ns#"
   xmlns:svg="http://www.w3.org/2000/svg"
   xmlns="http://www.w3.org/2000/svg"
   xmlns:sodipodi="http://sodipodi.sourceforge.net/DTD/sodipodi-0.dtd"
   xmlns:inkscape="http://www.inkscape.org/namespaces/inkscape"
   version="1.1"
   id="Your_Icon"
   x="0px"
   y="0px"
   width="50"
   height="80"
   viewBox="0 0 50 80"
   enable-background="new 0 0 100 100"
   xml:space="preserve"
   inkscape:version="0.48.2 r9819"
   sodipodi:docname="icon_22770.svg"><metadata
   id="metadata9"><rdf:RDF><cc:Work
       rdf:about=""><dc:format>image/svg+xml</dc:format><dc:type
         rdf:resource="http://purl.org/dc/dcmitype/StillImage" /><dc:title></dc:title></cc:Work></rdf:RDF></metadata><defs
   id="defs7" /><sodipodi:namedview
   pagecolor="#ffffff"
   bordercolor="#666666"
   borderopacity="1"
   objecttolerance="10"
   gridtolerance="10"
   guidetolerance="10"
   inkscape:pageopacity="0"
   inkscape:pageshadow="2"
   inkscape:window-width="934"
   inkscape:window-height="726"
   id="namedview5"
   showgrid="false"
   showguides="true"
   inkscape:guide-bbox="true"
   inkscape:zoom="2.36"
   inkscape:cx="50"
   inkscape:cy="50"
   inkscape:window-x="0"
   inkscape:window-y="0"
   inkscape:window-maximized="0"
   inkscape:current-layer="Your_Icon" />
<path
   d="m 39.891,32.68422 c 0.001,0 0.009,-0.001 0.009,-0.001 -0.58,-2.274 -0.652,-4.73 -0.097,-7.624 0.09,-0.331 0.169,-0.729 0.232,-1.164 0.35,-2.427 -0.281,-5.186 -1.128,-8.459 -1.01,-3.903 -3.307,-4.8 -5.188,-4.997 -0.01,-0.001 -0.016,-0.004 -0.026,-0.005 -1.776,-0.213 -4.018,-0.5019997 -4.537,-1.8719997 0.476,-0.077 0.845,-0.471 0.845,-0.969 0,-0.552 -0.447,-1 -1,-1 0.553,0 1,-0.448 1,-1 0,-0.552 -0.447,-1 -1,-1 H 21 c -0.552,0 -1,0.448 -1,1 0,0.552 0.448,1 1,1 -0.552,0 -1,0.448 -1,1 0,0.525 0.408,0.943 0.922,0.984 C 20.669,10.90622 19.766,16.47122 18,20.59322 c -3,7 -9,9 -9,18 l 0.865,33.002 c 0.074,2.749 2.385,4.998 5.135,4.998 h 20 c 2.75,0 5.061,-2.249 5.135,-4.998 L 41,38.59322 c 10e-4,-2.392 -0.43,-4.281 -1.109,-5.909 z m -21.405,-1.903 c -2.248,2.784 -3.485,4.318 -3.485,7.811 l 1,32.97 c 0.017,0.552 -0.417,1.013 -0.969,1.03 -0.01,0 -0.021,0 -0.031,0 -0.539,0 -0.982,-0.428 -0.999,-0.97 l -1,-33 c 0,-4.23 1.562,-6.167 3.928,-9.097 0.348,-0.43 0.979,-0.496 1.406,-0.15 0.43,0.347 0.497,0.976 0.15,1.406 z m 18.751,-6.914 c -0.65,1.471 -2.482,1.328 -3.969,-0.831 -0.458,-0.751 -0.887,-1.557 -1.268,-2.444 -0.208,-0.484 -0.4,-0.992 -0.584,-1.509 -1.001,-2.726 -0.157,-5.278 1.338,-5.789 0.795,-0.272 2.857,-0.775 3.908,3.036 0.947,3.427 1.412,5.369 0.575,7.537 z"
   id="path3"
   inkscape:connector-curvature="0" />
</svg>